<svg width="24" height="24" viewBox="0 0 24 24" fill="none" xmlns="http://www.w3.org/2000/svg">
<rect width="24" height="24" rx="5" fill="url(#paint0_linear)"/>
<g filter="url(#filter0_d)">
<path fill-rule="evenodd" clip-rule="evenodd" d="M18.1146 15.9758L18.1146 15.9758C18.1092 15.9758 18.1046 15.9766 18.1012 15.9782C18.0994 15.979 18.0975 15.9802 18.0956 15.9817C17.8997 16.2962 17.5216 16.584 17.1287 16.8831C16.8443 17.0995 16.5518 17.3222 16.3271 17.5587C16.0355 17.8655 16.0238 17.9559 15.9754 18.3321L15.9696 18.3772C15.9495 18.5317 15.8747 18.6668 15.7664 18.7632C15.6575 18.8601 15.5154 18.9182 15.3617 18.9182C15.3594 18.9182 15.3503 18.9178 15.3348 18.9172C15.1706 18.9099 15.0236 18.8376 14.9179 18.7254C14.8126 18.6138 14.7481 18.4627 14.7481 18.2974C14.7481 18.2947 14.7484 18.2856 14.7491 18.2696C14.7915 17.3023 14.9085 17.1472 15.5088 16.3825L13.192 16.3883V16.3889C13.1856 16.3889 13.1793 16.3885 13.1731 16.3877C12.9759 16.3782 12.8396 16.3086 12.7464 16.2147C12.6089 16.0759 12.5738 15.8904 12.5738 15.7668C12.5738 15.7617 12.5741 15.7566 12.5746 15.7517C12.5769 15.6383 12.6004 15.5037 12.6842 15.3831C12.7037 15.3549 12.7263 15.3277 12.7524 15.3021C12.1658 15.2032 12.1657 14.761 12.1657 14.6567C12.1657 14.463 12.239 14.3014 12.3601 14.1835C12.4559 14.0902 12.5809 14.0262 12.7219 13.9975C12.706 13.982 12.6908 13.9656 12.6765 13.9485C12.5824 13.8363 12.5241 13.6926 12.5241 13.5444C12.5241 13.3771 12.5909 13.2185 12.6985 13.0977C12.8061 12.9769 12.9558 12.8935 13.1215 12.8767L13.1528 12.8735C13.1209 12.8369 13.0937 12.7967 13.0715 12.7539C13.025 12.6644 13.0007 12.5625 13.0028 12.457C13.0056 12.3212 13.0495 12.1934 13.1242 12.0884C13.1991 11.983 13.3052 11.9001 13.4321 11.8544L13.493 11.8324L13.4928 11.8319C13.5137 11.8243 13.5351 11.8218 13.5558 11.8237C14.1507 11.8229 14.5958 11.8099 14.9514 11.7995C16.207 11.7628 16.3673 11.7581 18.1534 12.4084C18.1693 12.4142 18.1848 12.4184 18.2 12.4212C18.2158 12.424 18.2318 12.4255 18.2477 12.4256L18.96 12.43C19.0392 12.4305 19.1104 12.463 19.1617 12.5154C19.2129 12.5677 19.2445 12.6393 19.2445 12.7179V15.6873C19.2445 15.7662 19.2127 15.8379 19.1614 15.8901C19.1092 15.943 19.0375 15.9758 18.9586 15.9758H18.1146Z" fill="#FFFFFE"/>
</g>
<g filter="url(#filter1_d)">
<path fill-rule="evenodd" clip-rule="evenodd" d="M5.84425 8.7676L5.84426 8.7676C5.84968 8.7676 5.85423 8.76675 5.85764 8.7652C5.85947 8.76436 5.86134 8.76317 5.86322 8.76166C6.05918 8.44714 6.43728 8.15933 6.83017 7.86028C7.11452 7.64384 7.40702 7.4212 7.63179 7.18465C7.92335 6.87783 7.93501 6.78745 7.98345 6.41126L7.98928 6.36612C8.00929 6.21163 8.08419 6.0766 8.19246 5.98018C8.3013 5.88326 8.4434 5.82516 8.59715 5.82516C8.59948 5.82516 8.60853 5.82551 8.62404 5.8262C8.78827 5.83341 8.9352 5.90575 9.04096 6.01792C9.14625 6.12958 9.21076 6.28065 9.21076 6.44597C9.21076 6.44862 9.21041 6.45772 9.20971 6.47372C9.16737 7.44101 9.05031 7.59615 8.45002 8.36087L10.7669 8.35508V8.35451C10.7733 8.35449 10.7796 8.35488 10.7857 8.35566C10.983 8.36516 11.1193 8.4348 11.2124 8.52869C11.35 8.66741 11.385 8.85295 11.385 8.97657C11.385 8.98168 11.3848 8.98672 11.3843 8.99168C11.382 9.10506 11.3584 9.23965 11.2747 9.3603C11.2551 9.38848 11.2325 9.41564 11.2065 9.44128C11.793 9.54012 11.7931 9.98236 11.7931 10.0867C11.7931 10.2803 11.7198 10.442 11.5987 10.5599C11.5029 10.6531 11.3779 10.7171 11.2369 10.7458C11.2529 10.7614 11.268 10.7777 11.2823 10.7948C11.3764 10.907 11.4348 11.0508 11.4348 11.1989C11.4348 11.3663 11.368 11.5249 11.2604 11.6457C11.1527 11.7665 11.003 11.8499 10.8374 11.8667L10.806 11.8699C10.8379 11.9065 10.8652 11.9466 10.8873 11.9894C10.9338 12.079 10.9582 12.1809 10.956 12.2864C10.9532 12.4222 10.9093 12.55 10.8346 12.6549C10.7597 12.7603 10.6536 12.8432 10.5268 12.8889L10.4658 12.9109L10.466 12.9115C10.4452 12.919 10.4237 12.9215 10.403 12.9197C9.80811 12.9205 9.36299 12.9335 9.00748 12.9439C7.75184 12.9806 7.59153 12.9852 5.8054 12.3349C5.78959 12.3292 5.774 12.3249 5.75882 12.3222C5.74301 12.3193 5.72706 12.3179 5.71118 12.3178L4.9988 12.3134C4.91964 12.3129 4.8484 12.2803 4.79718 12.228C4.74595 12.1757 4.71429 12.104 4.71429 12.0255V9.05605C4.71429 8.97715 4.7461 8.90543 4.79747 8.85325C4.84959 8.80034 4.92129 8.7676 5.00022 8.7676H5.84425Z" fill="#FFFFFE"/>
</g>
<defs>
<filter id="filter0_d" x="8.16571" y="7.78629" width="15.0788" height="15.1319" filterUnits="userSpaceOnUse" color-interpolation-filters="sRGB">
<feFlood flood-opacity="0" result="BackgroundImageFix"/>
<feColorMatrix in="SourceAlpha" type="matrix" values="0 0 0 0 0 0 0 0 0 0 0 0 0 0 0 0 0 0 127 0"/>
<feOffset/>
<feGaussianBlur stdDeviation="2"/>
<feColorMatrix type="matrix" values="0 0 0 0 1 0 0 0 0 1 0 0 0 0 1 0 0 0 0.5 0"/>
<feBlend mode="normal" in2="BackgroundImageFix" result="effect1_dropShadow"/>
<feBlend mode="normal" in="SourceGraphic" in2="effect1_dropShadow" result="shape"/>
</filter>
<filter id="filter1_d" x="0.714294" y="1.82516" width="15.0788" height="15.1319" filterUnits="userSpaceOnUse" color-interpolation-filters="sRGB">
<feFlood flood-opacity="0" result="BackgroundImageFix"/>
<feColorMatrix in="SourceAlpha" type="matrix" values="0 0 0 0 0 0 0 0 0 0 0 0 0 0 0 0 0 0 127 0"/>
<feOffset/>
<feGaussianBlur stdDeviation="2"/>
<feColorMatrix type="matrix" values="0 0 0 0 1 0 0 0 0 1 0 0 0 0 1 0 0 0 0.5 0"/>
<feBlend mode="normal" in2="BackgroundImageFix" result="effect1_dropShadow"/>
<feBlend mode="normal" in="SourceGraphic" in2="effect1_dropShadow" result="shape"/>
</filter>
<linearGradient id="paint0_linear" x1="-1.50895e-07" y1="-4.00208" x2="-8.00417" y2="19.9979" gradientUnits="userSpaceOnUse">
<stop stop-color="#A8ED2F"/>
<stop offset="1" stop-color="#68DFB1"/>
</linearGradient>
</defs>
</svg>
