<svg width="27" height="25" xmlns="http://www.w3.org/2000/svg"><g fill="none" fill-rule="evenodd"><g fill="#000"><path d="M2.174 7h13.478c1.2 0 2.174.983 2.174 2.195v1.317c1.2 0 2.174.983 2.174 2.195v10.098A2.185 2.185 0 0 1 17.826 25H2.174C.974 25 0 24.017 0 22.805V9.195C0 7.983.973 7 2.174 7zm16.956 9.22h-2.608c-.72 0-1.305.59-1.305 1.317a1.31 1.31 0 0 0 1.305 1.317h2.608V16.22zM.87 22.805a1.31 1.31 0 0 0 1.304 1.317h15.652c.72 0 1.304-.59 1.304-1.317v-3.073h-2.608c-1.2 0-2.174-.983-2.174-2.195 0-1.213.973-2.196 2.174-2.196h2.608v-2.634a1.31 1.31 0 0 0-1.304-1.317H2.174a2.16 2.16 0 0 1-1.304-.439v11.854zm1.304-12.293h14.783V9.195a1.31 1.31 0 0 0-1.305-1.317H2.174c-.72 0-1.304.59-1.304 1.317a1.31 1.31 0 0 0 1.304 1.317z" fill-rule="nonzero"/><path d="M16.652 16.976h.391a.39.39 0 1 1 0 .78h-.39a.39.39 0 1 1 0-.78z"/></g><path d="M23 1v6M20 4h6" stroke="#000" stroke-linecap="round"/></g></svg>