<svg width="60" height="60" viewBox="0 0 60 60" xmlns="http://www.w3.org/2000/svg" xmlns:xlink="http://www.w3.org/1999/xlink"><title>icon</title><desc>Created using Figma</desc><use xlink:href="#a" fill="#F2F6F7"/><g transform="translate(-431 -1161)"><use xlink:href="#b" transform="rotate(180 231.647 605.625)" fill="#FFF"/><mask id="c"><path fill="#fff" transform="rotate(180 231.647 605.625)" d="M-2-2h25v23H-2z"/><use xlink:href="#b" transform="rotate(180 231.647 605.625)"/></mask><g mask="url(#c)"><use xlink:href="#d" transform="rotate(180 231.647 605.625)" fill="#7F7F7F"/></g></g><g transform="translate(-431 -1161)"><use xlink:href="#b" transform="translate(457 1170)" fill="#FFF"/><mask id="e"><path fill="#fff" transform="translate(457 1170)" d="M-2-2h25v23H-2z"/><use xlink:href="#b" transform="translate(457 1170)"/></mask><g mask="url(#e)"><use xlink:href="#d" transform="translate(457 1170)"/></g></g><use xlink:href="#f" transform="translate(31 32)" fill="#FFF"/><g transform="translate(34 35)" fill="#00E7E2"><use xlink:href="#g"/><use xlink:href="#h"/></g><defs><path id="a" fill-rule="evenodd" d="M30 60c16.569 0 30-13.431 30-30C60 13.431 46.569 0 30 0 13.431 0 0 13.431 0 30c0 16.569 13.431 30 30 30z"/><path id="b" fill-rule="evenodd" d="M1.01 17.682c1.232.1 2.333-.387 4.9.376 2.568.762 4.913 1.192 7.82 1.192.43 0 .946-.01 1.547-.032a14.94 14.94 0 0 0 1.74-.161 6.357 6.357 0 0 0 1.462-.387c.415-.172.658-.408.73-.71a.808.808 0 0 0-.172-.665l-.236-.3a.704.704 0 0 1-.011-.527.615.615 0 0 1 .355-.376c.014 0 .25-.115.709-.344.458-.23.694-.53.709-.902.014-.258-.036-.455-.15-.591-.116-.136-.173-.211-.173-.226a.622.622 0 0 1-.096-.494.737.737 0 0 1 .268-.451l.44-.365c.294-.244.441-.544.441-.903a.92.92 0 0 0-.408-.73c-.258-.186-.394-.28-.408-.28a.835.835 0 0 1-.344-.472.8.8 0 0 1 .129-.559l.172-.333c.114-.222.171-.469.171-.74-.014-.56-.232-.889-.655-.99-.422-.1-.698-.15-.827-.15h-3.749c-.666 0-1.239.004-1.719.011l-.72.011a.68.68 0 0 1-.343-.086.624.624 0 0 1-.237-.236.508.508 0 0 1-.118-.301.823.823 0 0 1 .054-.344c.172-.487.319-1.024.44-1.611.122-.587.208-1.164.258-1.73.05-.565.057-1.085.022-1.557-.036-.473-.133-.838-.29-1.096-.1-.158-.194-.3-.28-.43-.086-.129-.3-.193-.644-.193-.043 0-.115.036-.215.107-.1.072-.215.251-.344.538-.573 1.375-1.206 2.603-1.901 3.684-.695 1.081-1.418 1.998-2.17 2.75S5.66 8.422 4.9 8.852c-.759.43-3.49.68-4.191.752-.129.272-.28.709-.451 1.31C.086 11.516 0 12.34 0 13.384c0 1.06.125 1.974.376 2.74.25.766.462 1.286.634 1.558z"/><path id="d" d="M1.01 17.682l-1.1.694a1.3 1.3 0 0 0 .994.601l.106-1.295zm18.199.279l1.265.301.015-.075-1.28-.226zm-.172-.666l1.022-.803-1.022.803zm-.236-.3l-1.2.5c.045.108.105.21.178.302l1.022-.803zm.344-.903v-1.3a1.3 1.3 0 0 0-.5.1l.5 1.2zm1.418-1.246l-1.298-.072-.002.022 1.3.05zm-.323-.817h1.3a1.3 1.3 0 0 0-.235-.745l-1.065.745zm.172-.945l.812 1.015.018-.014-.83-1.001zm.44-.365l-.83-1 .83 1zm.441-.903h1.3c0-.02 0-.04-.002-.061l-1.298.061zm-.816-1.01l-.721 1.082a1.3 1.3 0 0 0 .72.219v-1.3zm-.344-.472l-1.282.214c.008.048.018.096.032.143l1.25-.357zm.129-.559l1.081.721a1.28 1.28 0 0 0 .074-.124l-1.155-.597zm.172-.333l-1.156-.596 1.156.596zm.171-.74h1.3v-.034l-1.3.033zm-6.95-1.129l.02 1.3-.02-1.3zm-.72.011v1.3h.02l-.02-1.3zm-.58-.322l1.13-.645a1.305 1.305 0 0 0-.13-.188l-1 .833zm-.064-.645l1.217.457.009-.024-1.226-.433zm.43-5.994l1.109-.678a1.49 1.49 0 0 0-.012-.02L12.72.623zm-1.483.022L10.053.11l-.015.034 1.2.5zM.71 9.604L.577 8.31a1.3 1.3 0 0 0-1.043.737l1.175.557zm.195 9.373c.776.054 1.424-.047 2.08-.056.689-.014 1.407.034 2.556.383l.74-2.493c-1.418-.413-2.534-.503-3.345-.49-.845.02-1.363.112-1.82.065l-.21 2.591zm4.636.327c2.635.78 5.165 1.24 8.19 1.246v-2.6c-2.79.005-4.95-.394-7.45-1.139l-.74 2.493zm8.19 1.246c.444 0 .982-.011 1.594-.033l-.093-2.598c-.592.02-1.084.031-1.5.031v2.6zm1.594-.033a16.838 16.838 0 0 0 1.891-.175l-.395-2.57c-.52.08-1.024.127-1.59.147l.094 2.598zm1.891-.175a8.26 8.26 0 0 0 1.76-.47l-.994-2.403c-.334.141-.67.23-1.161.303l.395 2.57zm1.76-.47c.617-.256 1.292-.742 1.499-1.61l-2.53-.602a.527.527 0 0 1 .123-.23c.028-.026.017-.004-.085.039l.994 2.402zm1.514-1.685a2.107 2.107 0 0 0-.43-1.695l-2.044 1.606a.486.486 0 0 1-.086-.363l2.56.452zm-.43-1.695l-.236-.301-2.044 1.606.236.301 2.044-1.606zm-.058.002a.59.59 0 0 1 .012.414l-2.446-.88c-.124.408-.11 1.062.034 1.466l2.4-1zm.012.414a.677.677 0 0 1-.369.384l-1-2.4a1.914 1.914 0 0 0-1.077 1.135l2.446.881zm-.869.484c.17 0 .301-.035.323-.04l.102-.03a2.262 2.262 0 0 0 .33-.146l.536-.265-1.163-2.326a49.776 49.776 0 0 1-.616.303l.01-.004a1.097 1.097 0 0 1 .16-.053 1.235 1.235 0 0 1 .319-.04v2.6zm1.29-.481c.703-.351 1.388-.996 1.427-2.015l-2.598-.1a.45.45 0 0 1 .09-.249c.033-.042.032-.018-.08.038l1.162 2.326zm1.426-1.993c.025-.44-.046-1.017-.453-1.5l-1.99 1.674c-.178-.212-.148-.394-.152-.318l2.595.144zm-.453-1.5a2.775 2.775 0 0 1-.09-.11c-.006-.008.008.01.029.043a1.147 1.147 0 0 1 .13.278c.02.06.064.207.064.4h-2.6c0 .327.129.567.133.576.023.046.064.117.083.147a2.82 2.82 0 0 0 .262.34l1.989-1.675zm-.102-.134a.7.7 0 0 1 .115.497l-2.553-.491c-.096.499-.012 1.028.308 1.485l2.13-1.491zm.115.497a.564.564 0 0 1-.196.318L19.6 12.07c-.312.276-.636.818-.733 1.22l2.553.492zm-.178.304l.44-.366-1.66-2-.44.364 1.66 2.002zm.44-.366c.57-.472.911-1.13.911-1.903h-2.6s0-.009.004-.025a.233.233 0 0 1 .018-.05c.018-.038.032-.043.008-.023l1.66 2.001zm.91-1.964a2.218 2.218 0 0 0-.946-1.723l-1.522 2.108a.393.393 0 0 1-.13-.262l2.597-.123zm-.946-1.723a17.06 17.06 0 0 0-.323-.228 2.54 2.54 0 0 0-.236-.146 2.381 2.381 0 0 0-.13-.06c-.014-.005-.214-.091-.48-.091v2.6a1.293 1.293 0 0 1-.651-.178c-.003 0 .004.003.03.02l.268.19 1.522-2.107zm-.448-.307c.034.023.077.06.115.113l-2.103 1.53c.132.17.37.397.546.52l1.442-2.163zm.115.113c.039.053.06.103.07.139l-2.5.714c.063.205.205.5.327.676l2.103-1.53zm.102.282a.565.565 0 0 1 0 .207l-2.543-.545c-.04.211-.05.548-.021.766l2.564-.428zm0 .207a.497.497 0 0 1-.072.17L19.18 9.053c-.12.19-.255.51-.308.728l2.543.545zm.002.045l.172-.333-2.31-1.193-.172.333 2.31 1.193zm.172-.333c.18-.37.308-.918.317-1.338h-2.6c.008.125.022.071-.028.145l2.31 1.193zm.316-1.371c-.01-.427-.102-.915-.39-1.351a2.061 2.061 0 0 0-1.265-.869l-.6 2.53a.46.46 0 0 1-.145-.067.576.576 0 0 1-.158-.157c-.07-.107-.045-.151-.041-.02l2.599-.066zm-1.655-2.22c-.384-.091-.816-.186-1.127-.186v2.6c-.043 0-.06-.003-.036 0 .03.004.053.007.107.017.117.021.258.052.456.099l.6-2.53zm-1.127-.186h-3.749v2.6h3.749v-2.6zm-3.749 0c-.67 0-1.253.004-1.738.011l.039 2.6c.474-.007 1.037-.01 1.699-.01v-2.6zm-1.738.011l-.72.011.039 2.6.72-.01-.04-2.6zm-.7.011c.07 0 .182.018.3.085l-1.29 2.258c.261.135.702.247.99.257v-2.6zm.3.085c.102.058.19.146.248.248l-2.257 1.29c.153.244.475.567.72.72l1.29-2.258zm.118.06c.11.133.171.297.18.45l-2.594.163c.035.315.225.796.417 1.052l1.997-1.665zm.18.45a.478.478 0 0 1-.026.195l-2.434-.913c-.083.24-.143.625-.134.881l2.595-.162zm-.017.17a14.33 14.33 0 0 0 .487-1.78l-2.545-.527c-.113.548-.237 1-.394 1.443l2.452.865zm.487-1.78a16.95 16.95 0 0 0 .28-1.878l-2.59-.23c-.046.528-.12 1.03-.236 1.581l2.546.528zm.28-1.878c.054-.614.062-1.24.023-1.77l-2.593.196c.033.415.027.827-.02 1.345l2.59.23zm.023-1.77c-.043-.573-.168-1.17-.477-1.676l-2.219 1.356c0-.001.02.032.044.122.023.09.046.218.06.394l2.592-.196zm-.49-1.696a26.558 26.558 0 0 0-.294-.453L11.36.914c.082.123.167.255.264.407l2.194-1.396zm-.294-.453a1.687 1.687 0 0 0-.934-.669 3.484 3.484 0 0 0-.792-.103v2.6c.105 0 .105.012.045-.006a.923.923 0 0 1-.482-.38l2.163-1.442zM11.797-1.3c-.33 0-.581.121-.667.164-.09.047-.22.127-.304.186l1.512 2.115c.02-.015.002 0-.046.025a1.174 1.174 0 0 1-.495.11v-2.6zm-.97.35c-.422.3-.656.798-.774 1.061l2.37 1.067a2.448 2.448 0 0 1 .093-.182c.005-.007-.003.006-.025.031a.941.941 0 0 1-.154.138L10.828-.95zM10.037.145C9.487 1.47 8.906 2.598 8.243 3.626l2.188 1.406c.726-1.134 1.413-2.464 2.007-3.887l-2.4-1zM8.243 3.626c-.66 1.03-1.296 1.837-1.995 2.534l1.838 1.838c.805-.807 1.615-1.833 2.345-2.966L8.243 3.626zM6.248 6.16c-.695.698-1.311 1.181-1.988 1.56l1.28 2.263c.842-.48 1.737-1.178 2.546-1.985L6.248 6.16zM4.26 7.72c.064-.045-.198.08-.525.153-.338.077-.721.142-1.138.202-.833.121-1.664.199-2.02.235l.264 2.587c.346-.036 1.231-.119 2.129-.249a18.28 18.28 0 0 0 1.342-.24c.383-.087.86-.216 1.229-.425L4.26 7.72zM-.466 9.047c-.158.338-.344.875-.526 1.51l2.5.714c.162-.568.276-.905.376-1.111l-2.35-1.113zm-.526 1.51c-.198.712-.306 1.715-.308 2.828h2.6c-.002-.978.062-1.622.208-2.114l-2.5-.714zm-.308 2.828c.003 1.148.158 2.264.44 3.143l2.472-.808c-.22-.654-.315-1.364-.312-2.335h-2.6zm.44 3.143c.25.761.502 1.423.77 1.848l2.199-1.389c-.076-.12-.245-.495-.497-1.267l-2.472.808z"/><path id="f" fill-rule="evenodd" d="M10 20c5.523 0 10-4.477 10-10S15.523 0 10 0 0 4.477 0 10s4.477 10 10 10z"/><path id="g" fill-rule="evenodd" d="M13.4 6.4c.162 0 .303.06.422.178.119.119.178.26.178.422 0 .162-.06.303-.178.422a.577.577 0 0 1-.422.178H7.6v5.8c0 .162-.06.303-.178.422A.577.577 0 0 1 7 14a.577.577 0 0 1-.422-.178.577.577 0 0 1-.178-.422V7.6H.6a.577.577 0 0 1-.422-.178A.577.577 0 0 1 0 7c0-.162.06-.303.178-.422A.577.577 0 0 1 .6 6.4h5.8V.6c0-.163.06-.303.178-.422A.577.577 0 0 1 7 0c.162 0 .303.06.422.178.119.119.178.26.178.422v5.8h5.8z"/><path id="h" d="M7.6 7.6v-.25h-.25v.25h.25zm-1.2 0h.25v-.25H6.4v.25zm0-1.2v.25h.25V6.4H6.4zm1.2 0h-.25v.25h.25V6.4zm5.8.25c.094 0 .171.031.245.105L14 6.4a.827.827 0 0 0-.599-.251v.5zm.245.105A.327.327 0 0 1 13.75 7h.5a.827.827 0 0 0-.251-.599l-.354.354zM13.75 7a.327.327 0 0 1-.105.245L14 7.6A.827.827 0 0 0 14.25 7h-.5zm-.105.245a.327.327 0 0 1-.245.105v.5a.827.827 0 0 0 .599-.251l-.354-.354zm-.245.105H7.6v.5h5.8v-.5zm-6.05.25v5.8h.5V7.6h-.5zm0 5.8a.327.327 0 0 1-.105.245L7.6 14a.827.827 0 0 0 .251-.599h-.5zm-.105.245A.327.327 0 0 1 7 13.75v.5a.827.827 0 0 0 .599-.251l-.354-.354zM7 13.75a.327.327 0 0 1-.245-.105L6.4 14A.827.827 0 0 0 7 14.25v-.5zm-.245-.105a.327.327 0 0 1-.105-.245h-.5c0 .231.087.435.251.599l.354-.354zM6.65 13.4V7.6h-.5v5.8h.5zM6.4 7.35H.6v.5h5.8v-.5zm-5.8 0a.327.327 0 0 1-.245-.105L0 7.6A.826.826 0 0 0 .6 7.85v-.5zm-.245-.105A.327.327 0 0 1 .25 7h-.5c0 .231.087.435.251.599l.354-.354zM.25 7c0-.094.031-.171.105-.245L0 6.4A.826.826 0 0 0-.25 7h.5zm.105-.245A.327.327 0 0 1 .6 6.65v-.5a.826.826 0 0 0-.599.251l.354.354zM.6 6.65h5.8v-.5H.6v.5zm6.05-.25V.6h-.5v5.8h.5zm0-5.8c0-.094.031-.171.105-.245L6.4 0A.826.826 0 0 0 6.15.6h.5zm.105-.245A.327.327 0 0 1 7 .25v-.5a.826.826 0 0 0-.599.251l.354.354zM7 .25c.094 0 .171.031.245.105L7.6 0A.826.826 0 0 0 7-.25v.5zm.245.105A.327.327 0 0 1 7.35.6h.5a.826.826 0 0 0-.251-.599l-.354.354zM7.35.6v5.8h.5V.6h-.5zm.25 6.05h5.8v-.5H7.6v.5z"/></defs></svg>