<svg xmlns="http://www.w3.org/2000/svg" width="60" height="60">
    <g fill="none" fill-rule="evenodd">
        <circle cx="30" cy="30" r="30" fill="#F2F6F7"/>
        <path d="M8 5h47v47H8z"/>
        <path fill="#000" fill-rule="nonzero" d="M47.469 42.929H40.03a.536.536 0 0 1-.531-.54v-9.1c0-.297.238-.539.531-.539h7.438c.293 0 .531.242.531.54v9.099c0 .298-.238.54-.531.54zm-6.907-1.08h6.376v-8.02h-6.376v8.02zm-5.843 1.08H27.28a.535.535 0 0 1-.531-.538V25.252c0-.297.238-.538.531-.538h7.438c.293 0 .531.241.531.538v17.139a.535.535 0 0 1-.531.538zm-6.907-1.076h6.375V25.79h-6.374v16.063zm-5.843 1.076H14.53a.534.534 0 0 1-.53-.539V14.537c0-.297.238-.537.531-.537h7.438c.293 0 .531.24.531.537v27.854a.534.534 0 0 1-.531.538zm-6.907-1.075h6.376v-26.78h-6.375v26.78z"/>
        <circle cx="41" cy="42" r="10" fill="#FFF"/>
        <path fill="#00E7E2" stroke="#00E7E2" stroke-width=".5" d="M47.4 41.4a.58.58 0 0 1 .422.178c.119.119.178.26.178.422a.58.58 0 0 1-.178.422.577.577 0 0 1-.422.178h-5.8v5.8a.58.58 0 0 1-.178.422A.577.577 0 0 1 41 49a.577.577 0 0 1-.422-.178.577.577 0 0 1-.178-.422v-5.8h-5.8a.577.577 0 0 1-.422-.178A.577.577 0 0 1 34 42a.58.58 0 0 1 .178-.422.577.577 0 0 1 .422-.178h5.8v-5.8a.58.58 0 0 1 .178-.422A.577.577 0 0 1 41 35a.58.58 0 0 1 .422.178c.119.119.178.26.178.422v5.8h5.8z"/>
    </g>
</svg>
