<svg width="24" height="24" viewBox="0 0 24 24" fill="none" xmlns="http://www.w3.org/2000/svg">
<path d="M14.858 7.166C14.6687 6.94467 14.3618 6.94467 14.1725 7.166L6.93175 15.6317L3.82748 12.0023C3.6382 11.7809 3.33126 11.7809 3.14198 12.0023C2.95267 12.2236 2.95267 12.5824 3.14198 12.8038L6.58903 16.834C6.68367 16.9447 6.80775 17 6.9318 17C7.05585 17 7.17993 16.9447 7.27457 16.834L14.8581 7.9675C15.0473 7.7462 15.0473 7.38736 14.858 7.166Z" fill="#2CC68F"/>
<path d="M20.858 7.166C20.6687 6.94467 20.3618 6.94467 20.1725 7.166L12.9318 15.6317L9.82748 12.0023C9.6382 11.7809 9.33126 11.7809 9.14198 12.0023C8.95267 12.2236 8.95267 12.5824 9.14198 12.8038L12.589 16.834C12.6837 16.9447 12.8077 17 12.9318 17C13.0559 17 13.1799 16.9447 13.2746 16.834L20.8581 7.9675C21.0473 7.7462 21.0473 7.38736 20.858 7.166Z" fill="#2CC68F"/>
</svg>
