<svg xmlns="http://www.w3.org/2000/svg" width="22" height="22">
    <g fill="#8B9396">
        <path d="M5.642 5.574h7.18c.887 0 1.608.895 1.608 1.995V17.63c0 1.1-.721 1.995-1.608 1.995h-7.18c-.888 0-1.61-.895-1.61-1.995V7.57c0-1.1.722-1.995 1.61-1.995zM4.709 17.63c0 .637.419 1.155.932 1.155h7.18c.514 0 .932-.518.932-1.155V7.57c0-.637-.418-1.155-.931-1.155h-7.18c-.514 0-.933.518-.933 1.155v10.06z"/>
        <path d="M15.671 15.212c.514 0 .932-.518.932-1.155V3.995c0-.637-.418-1.155-.932-1.155h-7.18c-.514 0-.932.518-.932 1.155 0 .232-.151.42-.338.42-.187 0-.339-.188-.339-.42 0-1.1.722-1.995 1.61-1.995h7.18c.887 0 1.609.895 1.609 1.995v10.062c0 1.1-.722 1.994-1.61 1.994-.187 0-.338-.188-.338-.42 0-.23.151-.419.338-.419z"/>
    </g>
</svg>
