<svg width="22" height="25" viewBox="0 0 22 25" fill="none" xmlns="http://www.w3.org/2000/svg">
<path fill-rule="evenodd" clip-rule="evenodd" d="M16.3891 10.8042C16.4955 10.2435 16.9478 9.89605 17.3991 10.028C18.7578 10.4246 19.8711 11.081 20.6643 11.8898C21.4413 12.6825 22 13.7235 22 14.876C22 16.8697 20.611 18.4009 18.9813 19.3688C17.2765 20.381 14.9749 21 12.4668 21C10.1478 21 8.01029 20.4714 6.35728 19.5976C4.75793 18.752 3.40265 17.4645 3.0301 15.777C2.90745 15.2215 3.17069 14.6478 3.61805 14.4954C4.06542 14.3431 4.52765 14.6701 4.6503 15.2256C4.8125 15.9613 5.54718 16.9019 7.01529 17.6782C8.43005 18.4263 10.3385 18.914 12.4668 18.914C14.7729 18.914 16.8184 18.3408 18.2564 17.4868C19.7696 16.5883 20.32 15.5792 20.32 14.876C20.32 14.5874 20.1658 14.0808 19.5982 13.5021C19.0463 12.9392 18.1835 12.4001 17.0146 12.0586C16.5629 11.9267 16.283 11.365 16.3891 10.8042Z" fill="white"/>
<path fill-rule="evenodd" clip-rule="evenodd" d="M3.50764 3.65929C2.07561 4.54346 1.59145 5.55156 1.59145 6.28567C1.59145 7.05664 2.11079 8.1621 3.53779 9.1462C4.89452 10.082 6.82398 10.7099 9.00004 10.7099C11.1761 10.7099 13.1055 10.082 14.4621 9.1462C15.8893 8.1621 16.4084 7.05664 16.4084 6.28567C16.4084 5.55152 15.9245 4.54346 14.4923 3.65929C13.1334 2.82024 11.195 2.29015 9.00004 2.29015C6.80481 2.29015 4.86661 2.82024 3.50764 3.65929ZM2.88015 1.55468C4.48737 0.562314 6.65114 0 9.00004 0C11.3489 0 13.5125 0.562314 15.1198 1.55468C16.6539 2.50186 18 4.06415 18 6.28567C18 8.47109 16.689 10.15 15.15 11.2116C13.5407 12.3215 11.3678 13 9.00004 13C6.63197 13 4.45943 12.3215 2.85003 11.2116C1.31084 10.15 0 8.47109 0 6.28567C0 4.06415 1.34602 2.50186 2.88015 1.55468Z" fill="white"/>
<path fill-rule="evenodd" clip-rule="evenodd" d="M3.83992 14C4.30381 14 4.6798 14.5028 4.6798 15.1229C4.6798 15.8628 5.22284 16.9374 6.73207 17.8969C8.16463 18.8075 10.2022 19.419 12.5 19.419C14.7976 19.419 16.8352 18.8075 18.268 17.8969C19.7769 16.9374 20.32 15.8628 20.32 15.1229C20.32 14.5028 20.6962 14 21.1601 14C21.6238 14 22 14.5028 22 15.1229V18.6245C22 20.7936 20.5996 22.384 18.9751 23.3679C17.277 24.3969 14.9883 25 12.5 25C10.0115 25 7.72278 24.3969 6.02467 23.3679C4.40046 22.384 3 20.7936 3 18.6245V15.1229C3 14.5028 3.37605 14 3.83992 14ZM4.70157 18.8932C4.81472 19.6097 5.38443 20.5139 6.71796 21.3218C8.15053 22.1897 10.1921 22.7538 12.5 22.7538C14.8077 22.7538 16.8493 22.1897 18.2821 21.3218C19.6157 20.5139 20.1851 19.6097 20.2985 18.8932C19.8993 19.2853 19.4538 19.63 18.9892 19.9254C17.2911 21.005 14.9985 21.6652 12.5 21.6652C10.0013 21.6652 7.70898 21.005 6.01057 19.9254C5.54603 19.63 5.1008 19.2853 4.70157 18.8932Z" fill="white"/>
<path fill-rule="evenodd" clip-rule="evenodd" d="M3.53557 8.80853C4.89289 9.73076 6.82335 10.3495 9 10.3495C11.1769 10.3495 13.1073 9.73076 14.4644 8.80853C15.8942 7.83702 16.4087 6.74905 16.4087 6H18V9.5451C18 11.7413 16.6733 13.3515 15.1346 14.3476C13.5256 15.3893 11.3576 16 9 16C6.64266 16 4.47438 15.3893 2.86555 14.3476C1.3267 13.3515 0 11.7413 0 9.5451V6H1.59146C1.59146 6.74905 2.10589 7.83702 3.53557 8.80853ZM1.61199 9.81718C1.71927 10.5426 2.25886 11.4581 3.52226 12.276C4.87961 13.155 6.81347 13.7258 9 13.7258C11.1865 13.7258 13.1203 13.155 14.4778 12.276C15.7411 11.4581 16.2809 10.5426 16.3881 9.81718C16.0098 10.2142 15.5881 10.5632 15.148 10.8623C13.5389 11.9553 11.3672 12.6237 9 12.6237C6.63308 12.6237 4.46113 11.9553 2.85225 10.8623C2.41215 10.5632 1.99016 10.2142 1.61199 9.81718Z" fill="white"/>
</svg>
