<svg width="56" height="58" fill="none" xmlns="http://www.w3.org/2000/svg"><path fill="url(#paint0_linear)" d="M0 2h56v56H0z"/><path d="M23 39.571c0 1.14.938 2.072 2.083 2.072h10.803L34.5 48.22a2.31 2.31 0 0 0 .635 2.133L36.792 52l10.291-10.233A3.09 3.09 0 0 0 48 39.571V26.107A3.112 3.112 0 0 0 44.875 23H30.812a3.11 3.11 0 0 0-2.875 1.895L23.22 35.853a3.11 3.11 0 0 0-.219 1.13v2.588z" fill="url(#paint1_linear)"/><g filter="url(#filter0_d)"><path d="M33 20.429c0-1.14-.938-2.072-2.083-2.072H20.115L21.5 11.78a2.31 2.31 0 0 0-.635-2.134L19.208 8 8.917 18.233A3.09 3.09 0 0 0 8 20.429v13.464A3.112 3.112 0 0 0 11.125 37h14.063a3.11 3.11 0 0 0 2.875-1.895l4.718-10.958a3.11 3.11 0 0 0 .219-1.13V20.43z" fill="#fff"/></g><defs><filter id="filter0_d" x="4" y="0" width="33" height="37" filterUnits="userSpaceOnUse" color-interpolation-filters="sRGB"><feFlood flood-opacity="0" result="BackgroundImageFix"/><feColorMatrix in="SourceAlpha" values="0 0 0 0 0 0 0 0 0 0 0 0 0 0 0 0 0 0 127 0"/><feOffset dy="-4"/><feGaussianBlur stdDeviation="2"/><feColorMatrix values="0 0 0 0 1 0 0 0 0 1 0 0 0 0 1 0 0 0 0.25 0"/><feBlend in2="BackgroundImageFix" result="effect1_dropShadow"/><feBlend in="SourceGraphic" in2="effect1_dropShadow" result="shape"/></filter><linearGradient id="paint0_linear" x1="0" y1="-7.338" x2="47" y2="58" gradientUnits="userSpaceOnUse"><stop stop-color="#A8ED2F"/><stop offset="1" stop-color="#68DFB1"/></linearGradient><linearGradient id="paint1_linear" x1="43" y1="37" x2="26.385" y2="21.514" gradientUnits="userSpaceOnUse"><stop stop-color="#fff"/><stop offset=".971" stop-color="#fff" stop-opacity="0"/></linearGradient></defs></svg>