<?xml version="1.0" encoding="UTF-8"?>
<svg width="16px" height="16px" viewBox="0 0 16 16" version="1.1" xmlns="http://www.w3.org/2000/svg" xmlns:xlink="http://www.w3.org/1999/xlink">
    <!-- Generator: Sketch 50.2 (55047) - http://www.bohemiancoding.com/sketch -->
    <title>Icon_calendar@2x</title>
    <desc>Created with Sketch.</desc>
    <defs></defs>
    <g id="Web-app" stroke="none" stroke-width="1" fill="none" fill-rule="evenodd">
        <g id="WebApp-1366px---Finance-payroll---add-employee" transform="translate(-1304.000000, -189.000000)">
            <g id="Modal" transform="translate(890.000000, 0.000000)">
                <g id="Cliff-date" transform="translate(254.000000, 155.000000)">
                    <g id="Date">
                        <g id="Icon_calendar" transform="translate(157.000000, 31.000000)">
                            <rect id="Rectangle" x="0" y="0" width="22" height="22"></rect>
                            <path d="M18,4.5 C18.2812514,4.5 18.5182282,4.5963532 18.7109375,4.7890625 C18.9036468,4.9817718 19,5.21874859 19,5.5 L19,18 C19,18.2708347 18.9036468,18.5052073 18.7109375,18.703125 C18.5182282,18.9010427 18.2812514,19 18,19 L4,19 C3.71874859,19 3.4817718,18.9010427 3.2890625,18.703125 C3.0963532,18.5052073 3,18.2708347 3,18 L3,5.5 C3,5.21874859 3.0963532,4.9817718 3.2890625,4.7890625 C3.4817718,4.5963532 3.71874859,4.5 4,4.5 L8,4.5 L8,3.5 C8,3.36458266 8.04947867,3.24739633 8.1484375,3.1484375 C8.24739633,3.04947867 8.36458266,3 8.5,3 C8.63541734,3 8.75260367,3.04947867 8.8515625,3.1484375 C8.95052133,3.24739633 9,3.36458266 9,3.5 L9,4.5 L13,4.5 L13,3.5 C13,3.36458266 13.0494787,3.24739633 13.1484375,3.1484375 C13.2473963,3.04947867 13.3645827,3 13.5,3 C13.6354173,3 13.7526037,3.04947867 13.8515625,3.1484375 C13.9505213,3.24739633 14,3.36458266 14,3.5 L14,4.5 L18,4.5 Z M18,18 L18,5.5 L14,5.5 L14,6 C14,6.13541734 13.9505213,6.25260367 13.8515625,6.3515625 C13.7526037,6.45052133 13.6354173,6.5 13.5,6.5 C13.3645827,6.5 13.2473963,6.45052133 13.1484375,6.3515625 C13.0494787,6.25260367 13,6.13541734 13,6 L13,5.5 L9,5.5 L9,6 C9,6.13541734 8.95052133,6.25260367 8.8515625,6.3515625 C8.75260367,6.45052133 8.63541734,6.5 8.5,6.5 C8.36458266,6.5 8.24739633,6.45052133 8.1484375,6.3515625 C8.04947867,6.25260367 8,6.13541734 8,6 L8,5.5 L4,5.5 L4,18 L18,18 Z M14.5,11 C14.3645827,11 14.2473963,10.9505213 14.1484375,10.8515625 C14.0494787,10.7526037 14,10.6354173 14,10.5 L14,9.5 C14,9.36458266 14.0494787,9.24739633 14.1484375,9.1484375 C14.2473963,9.04947867 14.3645827,9 14.5,9 L15.5,9 C15.6354173,9 15.7526037,9.04947867 15.8515625,9.1484375 C15.9505213,9.24739633 16,9.36458266 16,9.5 L16,10.5 C16,10.6354173 15.9505213,10.7526037 15.8515625,10.8515625 C15.7526037,10.9505213 15.6354173,11 15.5,11 L14.5,11 Z M14.5,15 C14.3645827,15 14.2473963,14.9505213 14.1484375,14.8515625 C14.0494787,14.7526037 14,14.6354173 14,14.5 L14,13.5 C14,13.3645827 14.0494787,13.2473963 14.1484375,13.1484375 C14.2473963,13.0494787 14.3645827,13 14.5,13 L15.5,13 C15.6354173,13 15.7526037,13.0494787 15.8515625,13.1484375 C15.9505213,13.2473963 16,13.3645827 16,13.5 L16,14.5 C16,14.6354173 15.9505213,14.7526037 15.8515625,14.8515625 C15.7526037,14.9505213 15.6354173,15 15.5,15 L14.5,15 Z M11.5,13 C11.6354173,13 11.7526037,13.0494787 11.8515625,13.1484375 C11.9505213,13.2473963 12,13.3645827 12,13.5 L12,14.5 C12,14.6354173 11.9505213,14.7526037 11.8515625,14.8515625 C11.7526037,14.9505213 11.6354173,15 11.5,15 L10.5,15 C10.3645827,15 10.2473963,14.9505213 10.1484375,14.8515625 C10.0494787,14.7526037 10,14.6354173 10,14.5 L10,13.5 C10,13.3645827 10.0494787,13.2473963 10.1484375,13.1484375 C10.2473963,13.0494787 10.3645827,13 10.5,13 L11.5,13 Z M11.5,9 C11.6354173,9 11.7526037,9.04947867 11.8515625,9.1484375 C11.9505213,9.24739633 12,9.36458266 12,9.5 L12,10.5 C12,10.6354173 11.9505213,10.7526037 11.8515625,10.8515625 C11.7526037,10.9505213 11.6354173,11 11.5,11 L10.5,11 C10.3645827,11 10.2473963,10.9505213 10.1484375,10.8515625 C10.0494787,10.7526037 10,10.6354173 10,10.5 L10,9.5 C10,9.36458266 10.0494787,9.24739633 10.1484375,9.1484375 C10.2473963,9.04947867 10.3645827,9 10.5,9 L11.5,9 Z M7.5,9 C7.63541734,9 7.75260367,9.04947867 7.8515625,9.1484375 C7.95052133,9.24739633 8,9.36458266 8,9.5 L8,10.5 C8,10.6354173 7.95052133,10.7526037 7.8515625,10.8515625 C7.75260367,10.9505213 7.63541734,11 7.5,11 L6.5,11 C6.36458266,11 6.24739633,10.9505213 6.1484375,10.8515625 C6.04947867,10.7526037 6,10.6354173 6,10.5 L6,9.5 C6,9.36458266 6.04947867,9.24739633 6.1484375,9.1484375 C6.24739633,9.04947867 6.36458266,9 6.5,9 L7.5,9 Z M7.5,13 C7.63541734,13 7.75260367,13.0494787 7.8515625,13.1484375 C7.95052133,13.2473963 8,13.3645827 8,13.5 L8,14.5 C8,14.6354173 7.95052133,14.7526037 7.8515625,14.8515625 C7.75260367,14.9505213 7.63541734,15 7.5,15 L6.5,15 C6.36458266,15 6.24739633,14.9505213 6.1484375,14.8515625 C6.04947867,14.7526037 6,14.6354173 6,14.5 L6,13.5 C6,13.3645827 6.04947867,13.2473963 6.1484375,13.1484375 C6.24739633,13.0494787 6.36458266,13 6.5,13 L7.5,13 Z" id="Calendar_icon" fill="#6D777B" opacity="0.699999988"></path>
                        </g>
                    </g>
                </g>
            </g>
        </g>
    </g>
</svg>