<svg width="24" height="24" viewBox="0 0 24 24" fill="none" xmlns="http://www.w3.org/2000/svg">
<rect width="24" height="24" fill="url(#paint0_linear)"/>
<path d="M12 5.99696C8.68993 5.99696 5.99696 8.68993 5.99696 12C5.99696 15.3101 8.68993 18.0031 12 18.0031C15.3101 18.0031 18.0031 15.3101 18.0031 12C18.0031 8.68993 15.3101 5.99696 12 5.99696ZM12 17.5343C8.9484 17.5343 6.46571 15.0517 6.46571 12C6.46571 8.94837 8.9484 6.46571 12 6.46571C15.0516 6.46571 17.5343 8.94837 17.5343 12C17.5343 15.0517 15.0516 17.5343 12 17.5343Z" fill="white" fill-opacity="0.75"/>
<path d="M21.4805 10.3777L19.5925 10.1955C19.3975 9.38276 19.0712 8.60724 18.6266 7.89949L19.832 6.44469C19.869 6.39997 19.8882 6.34307 19.8857 6.28503C19.8832 6.22698 19.8593 6.17193 19.8185 6.13055L17.8838 4.17105C17.8427 4.12935 17.7873 4.1046 17.7288 4.10166C17.6703 4.09873 17.6128 4.11783 17.5676 4.1552L16.1111 5.36141C15.4026 4.91898 14.6281 4.59209 13.8168 4.39297L13.6347 2.49395C13.6294 2.43505 13.6028 2.38011 13.5598 2.33949C13.5169 2.29887 13.4605 2.27538 13.4014 2.27344H10.6234C10.5643 2.27537 10.5079 2.29886 10.465 2.33948C10.422 2.3801 10.3953 2.43504 10.3901 2.49395L10.2079 4.38848C9.39502 4.58465 8.61952 4.912 7.91192 5.35766L6.45704 4.15414C6.41202 4.11698 6.35476 4.09795 6.29645 4.10079C6.23815 4.10362 6.183 4.1281 6.1418 4.16945L4.18239 6.12918C4.14114 6.17049 4.11677 6.22569 4.11404 6.284C4.11131 6.34231 4.13042 6.39955 4.16762 6.44453L5.37383 7.90117C4.93142 8.6097 4.60452 9.38409 4.4054 10.1953L2.51954 10.3777C2.46206 10.3836 2.40889 10.4108 2.37055 10.454C2.33221 10.4972 2.31149 10.5533 2.3125 10.611V13.389C2.3115 13.4467 2.33222 13.5028 2.37056 13.546C2.4089 13.5892 2.46207 13.6164 2.51954 13.6223L4.40766 13.8047C4.60269 14.6174 4.92894 15.393 5.37356 16.1007L4.16821 17.5553C4.13094 17.6002 4.11177 17.6574 4.11445 17.7157C4.11713 17.774 4.14147 17.8292 4.1827 17.8705L6.14204 19.83C6.1833 19.8712 6.23846 19.8956 6.29673 19.8984C6.35501 19.9011 6.41221 19.882 6.45715 19.8448L7.91372 18.6386C8.62227 19.081 9.3967 19.4079 10.208 19.607L10.3901 21.5061C10.3953 21.565 10.422 21.6199 10.465 21.6605C10.5079 21.7011 10.5643 21.7246 10.6234 21.7266H13.4014C13.4605 21.7246 13.5169 21.7011 13.5599 21.6605C13.6028 21.6199 13.6295 21.565 13.6347 21.5061L13.8169 19.6115C14.6298 19.4154 15.4053 19.088 16.1129 18.6423L17.5677 19.846C17.6127 19.8831 17.67 19.9022 17.7283 19.8993C17.7866 19.8965 17.8417 19.872 17.8829 19.8307L19.8424 17.8709C19.8837 17.8296 19.908 17.7744 19.9108 17.7161C19.9135 17.6578 19.8944 17.6006 19.8572 17.5556L18.651 16.0989C19.0935 15.3903 19.4204 14.6158 19.6195 13.8045L21.4805 13.6223C21.5379 13.6164 21.5911 13.5892 21.6294 13.546C21.6678 13.5028 21.6885 13.4467 21.6875 13.389V10.611C21.6885 10.5533 21.6678 10.4972 21.6294 10.454C21.5911 10.4108 21.5379 10.3836 21.4805 10.3777V10.3777ZM21.2188 13.1764L19.4012 13.3542C19.3521 13.3591 19.3058 13.3795 19.2691 13.4125C19.2324 13.4455 19.2072 13.4894 19.1972 13.5378C19.0037 14.4109 18.6536 15.2418 18.1641 15.9903C18.1371 16.0322 18.1243 16.0816 18.1273 16.1314C18.1304 16.1811 18.1492 16.2286 18.1811 16.2669L19.3598 17.69L17.7022 19.3477L16.2792 18.1691C16.2404 18.137 16.1922 18.1182 16.1419 18.1156C16.0916 18.113 16.0417 18.1267 15.9998 18.1546C15.2544 18.6478 14.4238 18.998 13.5503 19.1871C13.5011 19.1995 13.4571 19.2269 13.4242 19.2655C13.3913 19.304 13.3712 19.3519 13.3667 19.4023L13.1886 21.2578H10.8363L10.6583 19.4023C10.6537 19.3524 10.6334 19.3051 10.6005 19.2673C10.5675 19.2294 10.5235 19.2029 10.4747 19.1914C9.60142 18.9966 8.77058 18.6454 8.02231 18.1548C7.98056 18.1276 7.93125 18.1145 7.88152 18.1173C7.83179 18.12 7.78423 18.1385 7.74575 18.1702L6.32262 19.3481L4.66477 17.6902L5.84325 16.267C5.87542 16.2282 5.89421 16.18 5.89682 16.1296C5.89943 16.0792 5.88572 16.0294 5.85774 15.9874C5.36452 15.2421 5.01439 14.4114 4.82524 13.5379C4.81573 13.4897 4.79097 13.4459 4.75462 13.4128C4.71827 13.3797 4.67225 13.3592 4.62336 13.3543L2.78125 13.1761V10.8239L4.62336 10.6459C4.67253 10.641 4.71887 10.6206 4.75561 10.5876C4.79235 10.5546 4.81757 10.5106 4.82758 10.4623C5.02123 9.58915 5.3713 8.75828 5.86086 8.00984C5.88779 7.96792 5.90066 7.91851 5.89759 7.86878C5.89453 7.81905 5.8757 7.77158 5.84383 7.73328L4.66504 6.31004L6.32258 4.65234L7.74563 5.83086C7.78446 5.86301 7.83262 5.88178 7.88296 5.88439C7.9333 5.887 7.98314 5.87331 8.02508 5.84535C8.77041 5.35215 9.60104 5.00203 10.4745 4.81289C10.5237 4.80046 10.5677 4.77308 10.6006 4.73452C10.6335 4.69596 10.6536 4.64813 10.6581 4.59766L10.8363 2.74219H13.1886L13.3665 4.59766C13.3711 4.64765 13.3914 4.69492 13.4244 4.73277C13.4574 4.77063 13.5014 4.79715 13.5503 4.80859C14.4236 5.0034 15.2544 5.35457 16.0027 5.84512C16.0445 5.87227 16.0938 5.88542 16.1435 5.88265C16.1933 5.87988 16.2408 5.86134 16.2793 5.82973L17.7012 4.65266L19.336 6.30891L18.1566 7.73316C18.1245 7.772 18.1057 7.82018 18.1031 7.87055C18.1005 7.92091 18.1142 7.97078 18.1422 8.01273C18.6354 8.75807 18.9855 9.58872 19.1747 10.4622C19.1841 10.5105 19.2089 10.5544 19.2452 10.5875C19.2816 10.6206 19.3276 10.6411 19.3765 10.646L21.2188 10.8239V13.1764Z" fill="white" fill-opacity="0.75"/>
<path fill-rule="evenodd" clip-rule="evenodd" d="M13.9201 11.407C13.9548 11.2259 14.1023 11.1137 14.2495 11.1563C14.6926 11.2844 15.0557 11.4964 15.3144 11.7576C15.5678 12.0136 15.75 12.3498 15.75 12.722C15.75 13.3659 15.297 13.8604 14.7655 14.173C14.2095 14.4999 13.4589 14.6998 12.6409 14.6998C11.8846 14.6998 11.1875 14.5291 10.6484 14.2469C10.1268 13.9738 9.6848 13.558 9.5633 13.013C9.5233 12.8336 9.60915 12.6483 9.75505 12.5991C9.90095 12.5499 10.0517 12.6555 10.0917 12.8349C10.1446 13.0725 10.3842 13.3763 10.863 13.627C11.3244 13.8686 11.9468 14.0261 12.6409 14.0261C13.393 14.0261 14.0601 13.841 14.5291 13.5652C15.0226 13.275 15.2021 12.9491 15.2021 12.722C15.2021 12.6288 15.1518 12.4652 14.9667 12.2783C14.7867 12.0965 14.5053 11.9224 14.1241 11.8121C13.9768 11.7695 13.8855 11.5881 13.9201 11.407Z" fill="white"/>
<path fill-rule="evenodd" clip-rule="evenodd" d="M9.45756 9.32648C8.96459 9.58658 8.79792 9.88314 8.79792 10.0991C8.79792 10.3259 8.9767 10.6511 9.46794 10.9406C9.93499 11.2159 10.5992 11.4006 11.3483 11.4006C12.0973 11.4006 12.7616 11.2159 13.2286 10.9406C13.7199 10.6511 13.8986 10.3259 13.8986 10.0991C13.8986 9.88313 13.732 9.58658 13.239 9.32648C12.7712 9.07965 12.1039 8.92371 11.3483 8.92371C10.5926 8.92371 9.92537 9.07965 9.45756 9.32648ZM9.24155 8.70735C9.79483 8.41542 10.5397 8.25 11.3483 8.25C12.1569 8.25 12.9017 8.41542 13.455 8.70735C13.9831 8.98599 14.4465 9.44558 14.4465 10.0991C14.4465 10.742 13.9952 11.2359 13.4654 11.5482C12.9114 11.8747 12.1634 12.0743 11.3483 12.0743C10.5331 12.0743 9.78521 11.8747 9.23117 11.5482C8.70132 11.2359 8.25007 10.742 8.25007 10.0991C8.25007 9.44558 8.71343 8.98599 9.24155 8.70735Z" fill="white"/>
<path fill-rule="evenodd" clip-rule="evenodd" d="M9.82749 12.4508C9.97877 12.4508 10.1014 12.6016 10.1014 12.7876C10.1014 13.0095 10.2785 13.3318 10.7707 13.6196C11.2379 13.8927 11.9024 14.0761 12.6518 14.0761C13.4011 14.0761 14.0656 13.8927 14.5329 13.6196C15.025 13.3318 15.2021 13.0095 15.2021 12.7876C15.2021 12.6016 15.3248 12.4508 15.4761 12.4508C15.6273 12.4508 15.75 12.6016 15.75 12.7876V13.8378C15.75 14.4884 15.2933 14.9654 14.7635 15.2605C14.2097 15.569 13.4633 15.75 12.6518 15.75C11.8402 15.75 11.0938 15.569 10.54 15.2605C10.0103 14.9654 9.55357 14.4884 9.55357 13.8378V12.7876C9.55357 12.6016 9.67621 12.4508 9.82749 12.4508ZM10.1085 13.9184C10.1454 14.1333 10.3312 14.4045 10.7661 14.6468C11.2333 14.9071 11.8991 15.0763 12.6518 15.0763C13.4044 15.0763 14.0702 14.9071 14.5375 14.6468C14.9724 14.4045 15.1581 14.1333 15.1951 13.9184C15.0649 14.036 14.9196 14.1394 14.7681 14.228C14.2143 14.5518 13.4666 14.7498 12.6518 14.7498C11.8369 14.7498 11.0893 14.5518 10.5354 14.228C10.3839 14.1394 10.2387 14.036 10.1085 13.9184Z" fill="white"/>
<path fill-rule="evenodd" clip-rule="evenodd" d="M9.4671 10.9941C9.93435 11.2673 10.5989 11.4506 11.3482 11.4506C12.0976 11.4506 12.7621 11.2673 13.2293 10.9941C13.7215 10.7063 13.8986 10.384 13.8986 10.1621H14.4464V11.2123C14.4464 11.8629 13.9897 12.3399 13.46 12.635C12.9061 12.9436 12.1598 13.1245 11.3482 13.1245C10.5367 13.1245 9.79028 12.9436 9.23645 12.635C8.70671 12.3399 8.25 11.8629 8.25 11.2123V10.1621H8.79785C8.79785 10.384 8.97494 10.7063 9.4671 10.9941ZM8.80492 11.2929C8.84185 11.5078 9.0276 11.779 9.46252 12.0213C9.92978 12.2817 10.5955 12.4508 11.3482 12.4508C12.1009 12.4508 12.7666 12.2817 13.2339 12.0213C13.6688 11.779 13.8546 11.5078 13.8915 11.2929C13.7613 11.4105 13.6161 11.5139 13.4646 11.6025C12.9107 11.9263 12.1631 12.1243 11.3482 12.1243C10.5334 12.1243 9.78572 11.9263 9.23187 11.6025C9.08037 11.5139 8.9351 11.4105 8.80492 11.2929Z" fill="white"/>
<defs>
<linearGradient id="paint0_linear" x1="-2.5" y1="-4" x2="12" y2="24" gradientUnits="userSpaceOnUse">
<stop stop-color="#FF337C"/>
<stop offset="1" stop-color="#A806F4"/>
</linearGradient>
</defs>
</svg>
