<svg width="47" height="47" viewBox="0 0 47 47" fill="none" xmlns="http://www.w3.org/2000/svg">
<circle cx="23.1483" cy="23.1483" r="23.1483" fill="#D6E8FF"/>
<ellipse cx="24.1484" cy="18.2442" rx="11.5575" ry="5.05639" fill="#65A7FE"/>
<path fill-rule="evenodd" clip-rule="evenodd" d="M35.2273 21.8562C33.8065 23.9449 29.384 25.468 24.1484 25.468C18.9128 25.468 14.4903 23.9449 13.0695 21.8562C12.7581 22.3139 12.5909 22.7988 12.5909 23.3008C12.5909 26.0934 17.7654 28.3572 24.1484 28.3572C30.5314 28.3572 35.7058 26.0934 35.7058 23.3008C35.7058 22.7988 35.5386 22.3139 35.2273 21.8562Z" fill="#65A7FE" fill-opacity="0.5"/>
<path fill-rule="evenodd" clip-rule="evenodd" d="M35.2273 26.6082C33.8065 28.6969 29.384 30.22 24.1484 30.22C18.9128 30.22 14.4903 28.6969 13.0695 26.6082C12.7581 27.066 12.5909 27.5509 12.5909 28.0529C12.5909 30.8454 17.7654 33.1093 24.1484 33.1093C30.5314 33.1093 35.7058 30.8454 35.7058 28.0529C35.7058 27.5509 35.5386 27.066 35.2273 26.6082Z" fill="#65A7FE" fill-opacity="0.5"/>
</svg>
