<svg width="47" height="47" viewBox="0 0 47 47" fill="none" xmlns="http://www.w3.org/2000/svg">
<circle cx="23.1483" cy="23.1483" r="23.1483" fill="#7353CA"/>
<ellipse cx="23.5575" cy="18.2444" rx="11.5575" ry="5.05639" fill="#BBAFFF"/>
<path fill-rule="evenodd" clip-rule="evenodd" d="M34.6364 21.8564C33.2156 23.9451 28.7931 25.4682 23.5575 25.4682C18.3218 25.4682 13.8993 23.9451 12.4786 21.8564C12.1672 22.3142 12 22.7991 12 23.3011C12 26.0936 17.1745 28.3575 23.5575 28.3575C29.9405 28.3575 35.1149 26.0936 35.1149 23.3011C35.1149 22.7991 34.9477 22.3142 34.6364 21.8564Z" fill="#BDB1FF" fill-opacity="0.5"/>
<path fill-rule="evenodd" clip-rule="evenodd" d="M34.6364 26.6084C33.2156 28.6971 28.7931 30.2202 23.5575 30.2202C18.3218 30.2202 13.8993 28.6971 12.4786 26.6084C12.1672 27.0661 12 27.551 12 28.053C12 30.8456 17.1745 33.1094 23.5575 33.1094C29.9405 33.1094 35.1149 30.8456 35.1149 28.053C35.1149 27.551 34.9477 27.0661 34.6364 26.6084Z" fill="#BDB1FF" fill-opacity="0.5"/>
</svg>
