<svg width="47" height="47" viewBox="0 0 47 47" fill="none" xmlns="http://www.w3.org/2000/svg">
<circle cx="23.1483" cy="23.1483" r="23.1483" fill="#7353CA"/>
<ellipse cx="20.7446" cy="22.5694" rx="9.74456" ry="4.26324" fill="#BDB1FF" fill-opacity="0.5"/>
<path fill-rule="evenodd" clip-rule="evenodd" d="M30.0856 25.6147C28.8876 27.3758 25.1589 28.6599 20.7446 28.6599C16.3302 28.6599 12.6015 27.3758 11.4035 25.6147C11.141 26.0007 11 26.4096 11 26.8328C11 29.1873 15.3628 31.0961 20.7446 31.0961C26.1263 31.0961 30.4891 29.1873 30.4891 26.8328C30.4891 26.4096 30.3481 26.0007 30.0856 25.6147Z" fill="#BDB1FF" fill-opacity="0.5"/>
<path fill-rule="evenodd" clip-rule="evenodd" d="M30.0856 29.6211C28.8876 31.3821 25.1589 32.6663 20.7446 32.6663C16.3302 32.6663 12.6015 31.3821 11.4035 29.6211C11.141 30.007 11 30.4159 11 30.8392C11 33.1937 15.3628 35.1024 20.7446 35.1024C26.1263 35.1024 30.4891 33.1937 30.4891 30.8392C30.4891 30.4159 30.3481 30.007 30.0856 29.6211Z" fill="#BDB1FF" fill-opacity="0.5"/>
<path fill-rule="evenodd" clip-rule="evenodd" d="M30.8887 11.0447C31.0735 10.9643 31.2905 10.994 31.4441 11.1207L37.0317 15.7293C37.1451 15.8229 37.2105 15.9587 37.2109 16.1016C37.2114 16.2446 37.1468 16.3807 37.034 16.475L31.4464 21.1388C31.2932 21.2667 31.0756 21.2974 30.8901 21.2173C30.7045 21.1371 30.5853 20.961 30.5853 20.767V18.5833C28.7214 18.6546 25.5124 19.5419 24.2839 22.6784C24.2004 22.8916 23.9748 23.023 23.7375 22.9966C23.5001 22.9703 23.3124 22.7929 23.2826 22.5671C23.0898 21.1031 23.2366 18.8975 24.3388 17.0365C25.4084 15.2305 27.3516 13.7984 30.5853 13.6602V11.4944C30.5853 11.3009 30.7039 11.1252 30.8887 11.0447Z" fill="#BBAFFF"/>
</svg>
