<svg width="47" height="47" viewBox="0 0 47 47" fill="none" xmlns="http://www.w3.org/2000/svg">
<circle cx="23.15" cy="23.15" r="23.15" fill="#7353CA"/>
<ellipse cx="20.5337" cy="22.5694" rx="9.74456" ry="4.26324" fill="#BDB1FF" fill-opacity="0.5"/>
<path fill-rule="evenodd" clip-rule="evenodd" d="M29.8748 25.6147C28.6768 27.3758 24.9481 28.6599 20.5337 28.6599C16.1194 28.6599 12.3907 27.3758 11.1927 25.6147C10.9302 26.0007 10.7892 26.4096 10.7892 26.8328C10.7892 29.1873 15.152 31.0961 20.5337 31.0961C25.9155 31.0961 30.2783 29.1873 30.2783 26.8328C30.2783 26.4096 30.1373 26.0007 29.8748 25.6147Z" fill="#BDB1FF" fill-opacity="0.5"/>
<path fill-rule="evenodd" clip-rule="evenodd" d="M29.8748 29.6211C28.6768 31.3821 24.9481 32.6663 20.5337 32.6663C16.1194 32.6663 12.3907 31.3821 11.1927 29.6211C10.9302 30.007 10.7892 30.4159 10.7892 30.8392C10.7892 33.1937 15.152 35.1024 20.5337 35.1024C25.9155 35.1024 30.2783 33.1937 30.2783 30.8392C30.2783 30.4159 30.1373 30.007 29.8748 29.6211Z" fill="#BDB1FF" fill-opacity="0.5"/>
<circle cx="31.5423" cy="18.502" r="7.30425" fill="#BBAFFF"/>
<path d="M31.5422 13.8252V19.2048L34.0391 21.7016" stroke="#7353CA"/>
</svg>
