<svg width="160" height="173" viewBox="0 0 160 173" fill="none" xmlns="http://www.w3.org/2000/svg">
<g clip-path="url(#clip0)">
<path d="M144.026 158.988H132.185V173H144.026V158.988Z" fill="url(#paint0_linear)"/>
<path d="M132.461 172.488H143.752V158.985H132.461V172.488Z" fill="#F5F5F5"/>
<path d="M28.0889 158.988H16.2476V173H28.0889V158.988Z" fill="url(#paint1_linear)"/>
<path d="M27.8152 158.988H16.5234V172.49H27.8152V158.988Z" fill="#F5F5F5"/>
<path d="M156.495 0H3.50523C1.56935 0 0 1.57023 0 3.5072V157.409C0 159.346 1.56935 160.916 3.50523 160.916H156.495C158.431 160.916 160 159.346 160 157.409V3.5072C160 1.57023 158.431 0 156.495 0Z" fill="url(#paint2_linear)"/>
<path d="M155.667 0.825928H4.6068C2.67091 0.825928 1.10156 2.39616 1.10156 4.33313V155.478C1.10156 157.415 2.67091 158.985 4.6068 158.985H155.667C157.603 158.985 159.172 157.415 159.172 155.478V4.33313C159.172 2.39616 157.603 0.825928 155.667 0.825928Z" fill="#FAFAFA"/>
<path d="M133.425 26.3135H26.5747V134.326H133.425V26.3135Z" fill="url(#paint3_linear)"/>
<path d="M143.652 53.7084L109.316 62.824L113.765 79.6024L148.101 70.4869L143.652 53.7084Z" fill="url(#paint4_linear)"/>
<path d="M143.456 54.046L109.651 63.0205L113.96 79.2674L147.765 70.2929L143.456 54.046Z" fill="white"/>
<path d="M142.492 54.8711L110.903 63.2573L114.929 78.4389L146.517 70.0527L142.492 54.8711Z" fill="#69F0AE"/>
<path d="M129.386 69.7554C132.619 68.8969 134.861 66.7701 134.393 65.005C133.925 63.2399 130.924 62.5049 127.691 63.3634C124.457 64.2218 122.215 66.3486 122.683 68.1137C123.152 69.8788 126.152 70.6138 129.386 69.7554Z" fill="white"/>
<path d="M114.018 78.1455L108.381 94.5627L141.978 106.111L147.615 89.6941L114.018 78.1455Z" fill="url(#paint5_linear)"/>
<path d="M147.266 89.8638L114.189 78.4939L108.731 94.391L141.808 105.761L147.266 89.8638Z" fill="white"/>
<path d="M146.004 90.0142L115.096 79.3896L109.995 94.2444L140.904 104.869L146.004 90.0142Z" fill="#69F0AE"/>
<path d="M133.643 93.9219C134.236 92.1948 132.152 89.913 128.988 88.8254C125.824 87.7379 122.779 88.2563 122.186 89.9834C121.593 91.7105 123.677 93.9923 126.841 95.0798C130.005 96.1674 133.05 95.649 133.643 93.9219Z" fill="white"/>
<path d="M151.15 71.4446H115.625V88.8036H151.15V71.4446Z" fill="url(#paint6_linear)"/>
<path d="M150.876 71.7207H115.901V88.5298H150.876V71.7207Z" fill="white"/>
<path d="M149.73 72.2705H117.048V87.9774H149.73V72.2705Z" fill="#69F0AE"/>
<path d="M133.251 83.2924C136.596 83.2924 139.308 81.812 139.308 79.9858C139.308 78.1596 136.596 76.6792 133.251 76.6792C129.905 76.6792 127.193 78.1596 127.193 79.9858C127.193 81.812 129.905 83.2924 133.251 83.2924Z" fill="white"/>
<path d="M132.597 27.4158H27.4004V132.672H132.597V27.4158Z" fill="white"/>
<path d="M80.0003 99.8844C90.9512 99.8844 99.8287 91.0019 99.8287 80.0449C99.8287 69.0878 90.9512 60.2053 80.0003 60.2053C69.0493 60.2053 60.1719 69.0878 60.1719 80.0449C60.1719 91.0019 69.0493 99.8844 80.0003 99.8844Z" fill="url(#paint7_linear)"/>
<path d="M79.9999 99.0584C90.4948 99.0584 99.0027 90.5458 99.0027 80.045C99.0027 69.5441 90.4948 61.0315 79.9999 61.0315C69.5049 61.0315 60.9971 69.5441 60.9971 80.045C60.9971 90.5458 69.5049 99.0584 79.9999 99.0584Z" fill="#FAFAFA"/>
<path d="M71.3264 117.93H65.5425V123.991H71.3264V117.93Z" fill="url(#paint8_linear)"/>
<path d="M79.0378 117.93H73.2539V123.991H79.0378V117.93Z" fill="url(#paint9_linear)"/>
<path d="M86.7463 117.93H80.9624V123.991H86.7463V117.93Z" fill="url(#paint10_linear)"/>
<path d="M94.4572 117.93H88.6733V123.991H94.4572V117.93Z" fill="url(#paint11_linear)"/>
<path d="M71.1871 118.206H65.6792V123.717H71.1871V118.206Z" fill="#08BEE5"/>
<path opacity="0.7" d="M78.8985 118.206H73.3906V123.717H78.8985V118.206Z" fill="#08BEE5"/>
<path opacity="0.5" d="M86.6095 118.206H81.1016V123.717H86.6095V118.206Z" fill="#08BEE5"/>
<path opacity="0.3" d="M94.3204 118.206H88.8125V123.717H94.3204V118.206Z" fill="#08BEE5"/>
<path d="M88.857 68.59L87.9546 67.9578L85.7438 71.1168L86.6462 71.749L88.857 68.59Z" fill="#08BEE5"/>
<path d="M91.4487 88.9053L92.0806 88.0024L88.9233 85.7904L88.2914 86.6933L91.4487 88.9053Z" fill="#08BEE5"/>
<path d="M71.1426 91.4987L72.0449 92.1309L74.2557 88.9718L73.3533 88.3396L71.1426 91.4987Z" fill="#08BEE5"/>
<path d="M68.5522 71.1833L67.9204 72.0862L71.0777 74.2982L71.7095 73.3953L68.5522 71.1833Z" fill="#08BEE5"/>
<path opacity="0.2" d="M88.8467 68.5575L87.9443 67.9253L85.7336 71.0844L86.6359 71.7166L88.8467 68.5575Z" fill="black"/>
<path opacity="0.2" d="M91.4395 88.8736L92.0713 87.9707L88.914 85.7587L88.2822 86.6616L91.4395 88.8736Z" fill="black"/>
<path opacity="0.2" d="M71.1348 91.4655L72.0371 92.0977L74.2479 88.9386L73.3455 88.3064L71.1348 91.4655Z" fill="black"/>
<path opacity="0.2" d="M68.5435 71.1508L67.9116 72.0537L71.0689 74.2657L71.7007 73.3629L68.5435 71.1508Z" fill="black"/>
<path d="M79.9997 92.0299C86.615 92.0299 91.9778 86.6641 91.9778 80.045C91.9778 73.4259 86.615 68.0601 79.9997 68.0601C73.3843 68.0601 68.0215 73.4259 68.0215 80.045C68.0215 86.6641 73.3843 92.0299 79.9997 92.0299Z" fill="url(#paint12_linear)"/>
<path d="M79.9998 91.343C86.236 91.343 91.2915 86.2847 91.2915 80.0449C91.2915 73.8052 86.236 68.7468 79.9998 68.7468C73.7635 68.7468 68.708 73.8052 68.708 80.0449C68.708 86.2847 73.7635 91.343 79.9998 91.343Z" fill="#08BEE5"/>
<path opacity="0.2" d="M70.7745 81.5601C70.7723 79.579 71.2909 77.6321 72.2782 75.9149C73.2655 74.1977 74.6869 72.7705 76.3996 71.7765C78.1124 70.7825 80.0563 70.2567 82.0362 70.2519C84.0162 70.247 85.9627 70.7633 87.6803 71.7489C86.528 70.6393 85.1532 69.7874 83.6471 69.2494C82.141 68.7115 80.5378 68.4999 78.9437 68.6287C77.3497 68.7574 75.8012 69.2235 74.4007 69.9961C73.0003 70.7687 71.7799 71.8302 70.8204 73.1103C69.8608 74.3904 69.1841 75.8599 68.8349 77.4214C68.4857 78.9829 68.4721 80.6008 68.7949 82.168C69.1177 83.7352 69.7697 85.2159 70.7075 86.5119C71.6453 87.808 72.8477 88.89 74.2349 89.6861C73.1405 88.6349 72.2698 87.3732 71.6751 85.9768C71.0804 84.5803 70.7741 83.078 70.7745 81.5601Z" fill="white"/>
<path d="M31.9459 69.9884H23.1333V47.9728C23.1339 47.746 23.2244 47.5287 23.3849 47.3685C23.5454 47.2083 23.7629 47.1184 23.9896 47.1184H31.092C31.3191 47.1184 31.5369 47.2087 31.6975 47.3693C31.8581 47.53 31.9483 47.7479 31.9483 47.9751L31.9459 69.9884Z" fill="url(#paint13_linear)"/>
<path d="M31.0472 113.248H24.032C23.7937 113.248 23.5651 113.153 23.3965 112.985C23.228 112.816 23.1333 112.587 23.1333 112.349V90.3779H31.9459V112.344C31.9465 112.462 31.9238 112.58 31.8789 112.69C31.834 112.799 31.7679 112.899 31.6844 112.983C31.6009 113.067 31.5016 113.134 31.3922 113.179C31.2829 113.225 31.1656 113.248 31.0472 113.248Z" fill="url(#paint14_linear)"/>
<path d="M24.1548 47.3921H30.9223C31.1206 47.3921 31.3108 47.4709 31.451 47.6112C31.5913 47.7515 31.67 47.9418 31.67 48.1403V69.436H23.4141V48.1473C23.4132 48.0491 23.4316 47.9516 23.4683 47.8605C23.505 47.7694 23.5593 47.6864 23.6281 47.6162C23.6969 47.5461 23.7788 47.4902 23.8692 47.4517C23.9595 47.4133 24.0566 47.393 24.1548 47.3921Z" fill="#FAFAFA"/>
<path d="M23.4067 90.6538H31.6627V112.445C31.6627 112.512 31.6363 112.575 31.5894 112.622C31.5425 112.669 31.4789 112.695 31.4126 112.695H23.6591C23.5928 112.695 23.5292 112.669 23.4823 112.622C23.4354 112.575 23.4091 112.512 23.4091 112.445V90.6538H23.4067Z" fill="#FAFAFA"/>
</g>
<defs>
<linearGradient id="paint0_linear" x1="138.105" y1="173" x2="138.105" y2="158.988" gradientUnits="userSpaceOnUse">
<stop stop-color="#808080" stop-opacity="0.25"/>
<stop offset="0.54" stop-color="#808080" stop-opacity="0.12"/>
<stop offset="1" stop-color="#808080" stop-opacity="0.1"/>
</linearGradient>
<linearGradient id="paint1_linear" x1="1129.1" y1="158.988" x2="1129.1" y2="9598.1" gradientUnits="userSpaceOnUse">
<stop stop-color="#808080" stop-opacity="0.25"/>
<stop offset="0.54" stop-color="#808080" stop-opacity="0.12"/>
<stop offset="1" stop-color="#808080" stop-opacity="0.1"/>
</linearGradient>
<linearGradient id="paint2_linear" x1="54264" y1="109712" x2="54264" y2="0" gradientUnits="userSpaceOnUse">
<stop stop-color="#808080" stop-opacity="0.25"/>
<stop offset="0.54" stop-color="#808080" stop-opacity="0.12"/>
<stop offset="1" stop-color="#808080" stop-opacity="0.1"/>
</linearGradient>
<linearGradient id="paint3_linear" x1="36265" y1="61500.8" x2="36265" y2="12068.7" gradientUnits="userSpaceOnUse">
<stop stop-color="#808080" stop-opacity="0.25"/>
<stop offset="0.54" stop-color="#808080" stop-opacity="0.12"/>
<stop offset="1" stop-color="#808080" stop-opacity="0.1"/>
</linearGradient>
<linearGradient id="paint4_linear" x1="29718.5" y1="-120.908" x2="29391" y2="-1354.87" gradientUnits="userSpaceOnUse">
<stop stop-color="#808080" stop-opacity="0.25"/>
<stop offset="0.54" stop-color="#808080" stop-opacity="0.12"/>
<stop offset="1" stop-color="#808080" stop-opacity="0.1"/>
</linearGradient>
<linearGradient id="paint5_linear" x1="7134.87" y1="21395.7" x2="7984.64" y2="18923.6" gradientUnits="userSpaceOnUse">
<stop stop-color="#808080" stop-opacity="0.25"/>
<stop offset="0.54" stop-color="#808080" stop-opacity="0.12"/>
<stop offset="1" stop-color="#808080" stop-opacity="0.1"/>
</linearGradient>
<linearGradient id="paint6_linear" x1="20203.8" y1="6602.95" x2="20203.8" y2="5326.19" gradientUnits="userSpaceOnUse">
<stop stop-color="#808080" stop-opacity="0.25"/>
<stop offset="0.54" stop-color="#808080" stop-opacity="0.12"/>
<stop offset="1" stop-color="#808080" stop-opacity="0.1"/>
</linearGradient>
<linearGradient id="paint7_linear" x1="13509.8" y1="16852.8" x2="13509.8" y2="10181.9" gradientUnits="userSpaceOnUse">
<stop stop-color="#808080" stop-opacity="0.25"/>
<stop offset="0.54" stop-color="#808080" stop-opacity="0.12"/>
<stop offset="1" stop-color="#808080" stop-opacity="0.1"/>
</linearGradient>
<linearGradient id="paint8_linear" x1="1743.5" y1="3302.07" x2="1743.5" y2="3146.36" gradientUnits="userSpaceOnUse">
<stop stop-color="#808080" stop-opacity="0.25"/>
<stop offset="0.54" stop-color="#808080" stop-opacity="0.12"/>
<stop offset="1" stop-color="#808080" stop-opacity="0.1"/>
</linearGradient>
<linearGradient id="paint9_linear" x1="1940.29" y1="3302.07" x2="1940.29" y2="3146.36" gradientUnits="userSpaceOnUse">
<stop stop-color="#808080" stop-opacity="0.25"/>
<stop offset="0.54" stop-color="#808080" stop-opacity="0.12"/>
<stop offset="1" stop-color="#808080" stop-opacity="0.1"/>
</linearGradient>
<linearGradient id="paint10_linear" x1="2137.07" y1="3302.07" x2="2137.07" y2="3146.36" gradientUnits="userSpaceOnUse">
<stop stop-color="#808080" stop-opacity="0.25"/>
<stop offset="0.54" stop-color="#808080" stop-opacity="0.12"/>
<stop offset="1" stop-color="#808080" stop-opacity="0.1"/>
</linearGradient>
<linearGradient id="paint11_linear" x1="2333.86" y1="3302.07" x2="2333.86" y2="3146.36" gradientUnits="userSpaceOnUse">
<stop stop-color="#808080" stop-opacity="0.25"/>
<stop offset="0.54" stop-color="#808080" stop-opacity="0.12"/>
<stop offset="1" stop-color="#808080" stop-opacity="0.1"/>
</linearGradient>
<linearGradient id="paint12_linear" x1="8192.82" y1="9414.62" x2="8192.82" y2="6980" gradientUnits="userSpaceOnUse">
<stop stop-color="#808080" stop-opacity="0.25"/>
<stop offset="0.54" stop-color="#808080" stop-opacity="0.12"/>
<stop offset="1" stop-color="#808080" stop-opacity="0.1"/>
</linearGradient>
<linearGradient id="paint13_linear" x1="3351.67" y1="8750.06" x2="3351.67" y2="6533.96" gradientUnits="userSpaceOnUse">
<stop stop-color="#808080" stop-opacity="0.25"/>
<stop offset="0.54" stop-color="#808080" stop-opacity="0.12"/>
<stop offset="1" stop-color="#808080" stop-opacity="0.1"/>
</linearGradient>
<linearGradient id="paint14_linear" x1="3350.78" y1="12985.2" x2="3350.78" y2="10769.1" gradientUnits="userSpaceOnUse">
<stop stop-color="#808080" stop-opacity="0.25"/>
<stop offset="0.54" stop-color="#808080" stop-opacity="0.12"/>
<stop offset="1" stop-color="#808080" stop-opacity="0.1"/>
</linearGradient>
<clipPath id="clip0">
<rect width="160" height="173" fill="white"/>
</clipPath>
</defs>
</svg>
