<svg width="24" height="24" viewBox="0 0 24 24" fill="none" xmlns="http://www.w3.org/2000/svg">
<rect width="24" height="24" rx="6" fill="url(#paint0_linear)"/>
<path fill-rule="evenodd" clip-rule="evenodd" d="M14.3545 8.28479L16.2928 6.34651L16.5882 6.64198L14.65 8.58026L14.3545 8.28479Z" fill="white"/>
<path fill-rule="evenodd" clip-rule="evenodd" d="M6.98413 6.64129L7.2796 6.34582L9.21788 8.2841L8.92242 8.57957L6.98413 6.64129Z" fill="white"/>
<path fill-rule="evenodd" clip-rule="evenodd" d="M5.05535 17.807L6.14802 16.7143L6.42855 16.9948L5.33588 18.0875C5.53921 18.4321 5.45454 18.8742 5.13825 19.1192C4.82196 19.3643 4.37276 19.336 4.08982 19.053C3.80689 18.7701 3.77851 18.3209 4.0236 18.0046C4.26868 17.6883 4.71074 17.6036 5.05535 17.807ZM4.2707 18.4798C4.2707 18.6965 4.44636 18.8722 4.66304 18.8722C4.87972 18.8722 5.05538 18.6965 5.05538 18.4798C5.05538 18.2631 4.87972 18.0875 4.66304 18.0875C4.44636 18.0875 4.2707 18.2631 4.2707 18.4798Z" fill="white"/>
<path fill-rule="evenodd" clip-rule="evenodd" d="M6.98285 15.8648L8.92113 13.9266L9.2166 14.222L7.27832 16.1603L6.98285 15.8648Z" fill="white"/>
<path fill-rule="evenodd" clip-rule="evenodd" d="M14.3553 14.2206L14.6508 13.9252L16.589 15.8634L16.2936 16.1589L14.3553 14.2206Z" fill="white"/>
<path fill-rule="evenodd" clip-rule="evenodd" d="M18.2381 3.39858C18.3772 3.15422 18.635 3.00248 18.9153 3.00008C19.2494 2.99528 19.5501 3.20271 19.6657 3.51761C19.7812 3.83251 19.6864 4.18636 19.4291 4.40046C19.1718 4.61456 18.808 4.64231 18.5214 4.46971L17.4245 5.57143L17.1429 5.28858L18.2398 4.18686C18.0997 3.94311 18.099 3.64293 18.2381 3.39858ZM18.5214 3.79127C18.5214 4.00975 18.6977 4.18686 18.9152 4.18686C19.1328 4.18686 19.3091 4.00975 19.3091 3.79127C19.3091 3.57279 19.1328 3.39568 18.9152 3.39568C18.6977 3.39568 18.5214 3.57279 18.5214 3.79127Z" fill="white"/>
<path fill-rule="evenodd" clip-rule="evenodd" d="M5.0476 4.46967C4.9283 4.54147 4.79218 4.58037 4.65304 4.58241C4.29528 4.58548 3.98022 4.34682 3.8854 4.00091C3.79059 3.65501 3.93974 3.28842 4.24881 3.10773C4.55789 2.92703 4.94954 2.97744 5.20308 3.23055C5.45661 3.48366 5.50858 3.87613 5.32971 4.18681L6.42855 5.28857L6.14644 5.57143L5.0476 4.46967ZM5.04762 3.79121C5.04762 3.57272 4.87097 3.3956 4.65307 3.3956C4.43516 3.3956 4.25851 3.57272 4.25851 3.79121C4.25851 4.00969 4.43516 4.18681 4.65307 4.18681C4.87097 4.18681 5.04762 4.00969 5.04762 3.79121Z" fill="white"/>
<path fill-rule="evenodd" clip-rule="evenodd" d="M18.5238 17.8161C18.6431 17.7443 18.7793 17.7054 18.9184 17.7033C19.2762 17.7002 19.5912 17.9389 19.686 18.2848C19.7808 18.6307 19.6317 18.9973 19.3226 19.178C19.0135 19.3587 18.6219 19.3083 18.3684 19.0552C18.1148 18.8021 18.0628 18.4096 18.2417 18.0989L17.1429 16.9972L17.425 16.7143L18.5238 17.8161ZM18.5238 18.4945C18.5238 18.713 18.7005 18.8901 18.9184 18.8901C19.1363 18.8901 19.3129 18.713 19.3129 18.4945C19.3129 18.276 19.1363 18.0989 18.9184 18.0989C18.7005 18.0989 18.5238 18.276 18.5238 18.4945Z" fill="white"/>
<path fill-rule="evenodd" clip-rule="evenodd" d="M14.9703 9.41051H14.9024L12 8.57144L9.09762 9.41051H9.02972V9.42939V13.2493L12 14.1429L14.9703 13.2493V9.44827V9.41051ZM12 9.00776L13.4852 9.43778L12 9.8699L10.5149 9.43778L12 9.00776ZM9.45407 12.9388L12 13.7045L14.546 12.9388V9.56994L12 10.3083L9.45407 9.56994V12.9388Z" fill="white"/>
<rect x="17.1429" y="11.1429" width="1.28571" height="0.428571" fill="white"/>
<rect x="15.4286" y="11.1429" width="1.28571" height="0.428571" fill="white"/>
<rect x="18.8571" y="11.1429" width="0.428571" height="0.428571" fill="white"/>
<rect x="5.14288" y="11.1429" width="1.28571" height="0.428571" fill="white"/>
<rect x="6.85712" y="11.1429" width="1.28571" height="0.428571" fill="white"/>
<rect x="4.28571" y="11.1429" width="0.428571" height="0.428571" fill="white"/>
<defs>
<linearGradient id="paint0_linear" x1="3.3365" y1="15.3392" x2="20.6688" y2="32.6662" gradientUnits="userSpaceOnUse">
<stop stop-color="#75AFF8"/>
<stop offset="1" stop-color="#5D21D4"/>
</linearGradient>
</defs>
</svg>
